# xmcd
#
# Track frame offsets:
#	150
#	18695
#	35902
#	57946
#	75030
#	93900
#	121270
#	135292
#	152762
#	170222
#	193455
#	217302
#	234109
#	257700
#	271210
#
# Disc length: 3845 seconds
#
# Revision: 1
# Processed by: cddbd v1.5.2PL0 Copyright (c) Steve Scherf et al.
# Submitted via: audiograbber 1.81.02
#
DISCID=cf0f030f
DTITLE=Various Artist - Tanz der Tasten
DYEAR=2007
DGENRE=Instrumental
TTITLE0=C-moll Präludium
TTITLE1=O Herr, unser Gott, wie herrlich ist dein Name
TTITLE2=In dir ist Freude
TTITLE3=Groß ist der Herr
TTITLE4=Lobe den Herrn! Sing ihm dein Lied!
TTITLE5=El Shaddai
TTITLE6=Walking In The Sun
TTITLE7=Kommt in sein Tor mit dankbarem Herzen
TTITLE8=Gott hört dein Gebet
TTITLE9=Vision
TTITLE10=Concerto Piccolo
TTITLE11=Heilig, heilig, heilig
TTITLE12=Herr, das Licht deiner Liebe leuchtet auf
TTITLE13=BONUSTRACK Hevenu Schalom
TTITLE14=BONUSTRACK Happy Keys
EXTD=www.gerth.de, Best.-Nr. 939342
EXTT0=
EXTT1=
EXTT2=
EXTT3=
EXTT4=
EXTT5=
EXTT6=
EXTT7=
EXTT8=
EXTT9=
EXTT10=
EXTT11=
EXTT12=
EXTT13=
EXTT14=
PLAYORDER=
